<svg width="128" height="128" viewBox="0 0 128 128" fill="none" xmlns="http://www.w3.org/2000/svg">
<path d="M44.8487 77.924C32.2235 76.9718 22.2112 65.3848 22.2112 51.2419C22.2112 36.4766 33.1154 24.4655 46.5197 24.4655C57.2804 24.4655 66.418 32.2154 69.608 42.9068C69.7974 42.898 69.9788 42.8471 70.1704 42.8471C71.6287 42.8471 73.0475 43.1409 74.3684 43.7057C75.583 40.6899 77.8393 38.3125 80.6182 37.0618C80.0746 35.4762 79.4661 33.9272 78.7515 32.4444L84.3037 26.3286C85.0185 25.5416 85.4205 24.472 85.4205 23.3569C85.4205 22.2418 85.0185 21.1722 84.3037 20.3852L74.5264 9.6201C73.037 7.97922 70.6203 7.97922 69.1304 9.6201L63.5785 15.7359C61.5702 14.5632 59.4556 13.581 57.245 12.833V4.20181C57.245 1.88176 55.5366 0 53.4304 0H39.6091C37.5031 0 35.7947 1.88176 35.7947 4.20181V12.8327C33.5841 13.5807 31.4695 14.5632 29.4591 15.7356L23.9109 9.62454C22.4213 7.98365 20.0048 7.98365 18.5152 9.62454L8.73947 20.3896C8.02522 21.1766 7.62275 22.2462 7.62275 23.3613C7.62275 24.4767 8.02522 25.546 8.73947 26.3331L14.2876 32.4447C13.223 34.6593 12.3314 36.9861 11.6525 39.4211H3.81433C1.70834 39.4209 0 41.3026 0 43.623V58.8514C0 61.1717 1.70834 63.0535 3.81433 63.0535H11.6501C12.329 65.4879 13.2208 67.8172 14.2852 70.0317L8.73544 76.1454C7.24551 77.786 7.24551 80.448 8.73544 82.0889L18.5106 92.8569C20 94.4975 22.4167 94.4975 23.9064 92.8569L29.4543 86.7456C31.4647 87.9204 33.5814 88.9045 35.7942 89.6529V98.2838C35.7942 100.604 37.5026 102.486 39.6085 102.486H48.5439C46.1084 100.141 44.5586 96.705 44.5586 92.8705C44.5594 90.4219 44.384 80.2875 44.8487 77.924Z" fill="white"/>
<path d="M61.9675 46.5835C62.4366 46.0668 62.9531 45.6285 63.4822 45.2136C61.1551 37.2961 54.4739 31.5155 46.5192 31.5155C36.6442 31.5155 28.611 40.3645 28.611 51.2422C28.611 62.6521 37.586 72.3479 48.8527 70.7094C49.6485 69.9956 50.5213 69.3827 51.4717 68.9192C48.0969 59.2988 55.1945 54.0458 61.9675 46.5835Z" fill="white"/>
<path d="M90.5434 70.3739C82.3494 70.3739 75.6826 77.7174 75.6826 86.7431C75.6826 95.7689 82.3494 103.112 90.5434 103.112C98.7392 103.112 105.406 95.7689 105.406 86.7431C105.406 77.7174 98.7392 70.3739 90.5434 70.3739Z" fill="white"/>
<path d="M127.998 80.6087C127.998 78.7406 126.623 77.2262 124.927 77.2262H118.619C118.071 75.2664 117.352 73.3891 116.494 71.6084L120.963 66.6857C121.54 66.0497 121.863 65.1894 121.863 64.2921C121.863 63.3948 121.54 62.5345 120.963 61.8984L113.094 53.2309C112.494 52.5724 111.709 52.242 110.921 52.242C110.135 52.242 109.35 52.5724 108.75 53.2309L104.277 58.1577C102.66 57.2125 100.958 56.4231 99.1787 55.822V48.8733C99.1787 47.0052 97.8038 45.4905 96.1078 45.4905H84.9806C83.2846 45.4905 81.9098 47.0052 81.9098 48.8733V55.822C80.1306 56.4231 78.4266 57.2125 76.8076 58.1577L72.3407 53.238C71.7408 52.5766 70.9552 52.2464 70.1677 52.2464C69.382 52.2464 68.5967 52.5768 67.9967 53.2356L60.1279 61.9032C59.5505 62.5392 59.2278 63.3995 59.2278 64.2968C59.2278 65.1941 59.5508 66.0545 60.1279 66.6905L64.5948 71.6108C63.7362 73.3914 63.0195 75.2664 62.4717 77.2262H56.1634C54.4674 77.2262 53.0925 78.7406 53.0925 80.6087V92.8702C53.0925 94.7383 54.4674 96.2527 56.1634 96.2527H62.4695C63.0174 98.2125 63.7341 100.09 64.5927 101.871L60.1237 106.793C58.9256 108.113 58.9256 110.256 60.1237 111.578L67.9924 120.246C68.5696 120.882 69.3509 121.237 70.1655 121.237C70.9801 121.237 71.7612 120.882 72.3386 120.246L76.8033 115.328C78.4242 116.273 80.1285 117.065 81.9098 117.666V124.617C81.9098 126.485 83.2846 128 84.9806 128H96.1078C97.8038 128 99.1787 126.485 99.1787 124.617V117.666C100.96 117.065 102.664 116.273 104.283 115.328L108.754 120.25C109.354 120.911 110.14 121.239 110.925 121.239C111.712 121.239 112.498 120.911 113.098 120.25L120.965 111.585C121.541 110.949 121.864 110.089 121.864 109.191C121.864 108.294 121.541 107.434 120.965 106.798L116.496 101.876C117.354 100.092 118.073 98.2152 118.619 96.253H124.927C125.742 96.253 126.525 95.8972 127.1 95.2617C127.677 94.6281 128 93.7654 128 92.8681L127.998 80.6087ZM90.5433 107.812C79.9973 107.812 71.4158 98.36 71.4158 86.7431C71.4158 75.1266 79.997 65.6741 90.5433 65.6741C101.091 65.6741 109.673 75.1263 109.673 86.7431C109.673 98.3597 101.091 107.812 90.5433 107.812Z" fill="white"/>
</svg>
