<svg width="128" height="128" viewBox="0 0 128 128" fill="none" xmlns="http://www.w3.org/2000/svg">
<path fill-rule="evenodd" clip-rule="evenodd" d="M120.745 55.644L116.093 51.5921V118.278H123.535C126.001 118.278 128 120.455 128 123.139C128 125.824 126.001 128 123.535 128H4.46528C1.99923 128 0.000169767 125.824 0.000169767 123.139C0.000169767 120.455 1.99923 118.278 4.46528 118.278H11.9071V51.5921L7.2546 55.644C5.32895 57.3213 2.51909 56.9811 0.978623 54.8851C-0.561899 52.7885 -0.249698 49.7294 1.67595 48.0528L50.0534 5.92144C58.2071 -1.17954 69.7932 -1.17954 77.9465 5.92144L126.324 48.0528C128.25 49.7294 128.562 52.7885 127.022 54.8851C125.481 56.9811 122.671 57.3213 120.745 55.644ZM63.9999 24.3041C54.9577 24.3041 47.628 32.2836 47.628 42.1268C47.628 51.9699 54.9577 59.9494 63.9999 59.9494C73.042 59.9494 80.3719 51.9699 80.3719 42.1268C80.3719 32.2836 73.042 24.3041 63.9999 24.3041ZM74.394 66.8296C71.6626 66.4304 68.2524 66.4304 64.294 66.4304H63.7064C59.7479 66.4304 56.3371 66.4304 53.6063 66.8296C50.6793 67.258 47.8736 68.2243 45.5979 70.702C43.3222 73.179 42.4348 76.2335 42.0412 79.4196C41.6741 82.3924 41.6743 86.1054 41.6745 90.4147V118.278H50.6047H77.3952H86.3254V90.4147V89.6136C86.3242 85.644 86.3028 82.2071 85.9587 79.4196C85.5652 76.2335 84.6781 73.179 82.4021 70.702C80.1266 68.2243 77.3208 67.258 74.394 66.8296Z" fill="white"/>
<ellipse cx="66.5" cy="43.5" rx="22.5" ry="20.5" fill="white"/>
</svg>
