<svg width="128" height="128" viewBox="0 0 128 128" fill="none" xmlns="http://www.w3.org/2000/svg">
<path d="M81.5341 3.11899e-06C73.3928 -0.000115951 66.8297 -0.000234737 61.6687 0.693704C56.31 1.41419 51.7978 2.95549 48.2143 6.53902C45.0891 9.66418 43.5101 13.5047 42.6812 18.0173C41.8757 22.4024 41.7216 27.7689 41.6857 34.2077C41.672 36.6737 43.66 38.6839 46.1259 38.6976C48.5919 38.7114 50.6021 36.7234 50.6158 34.2574C50.652 27.7473 50.8211 23.1329 51.4644 19.6307C52.0842 16.2562 53.0797 14.303 54.5287 12.8536C56.1766 11.206 58.4901 10.1316 62.8582 9.54434C67.3554 8.9397 73.3154 8.93024 81.8609 8.93024H87.8144C96.3599 8.93024 102.32 8.9397 106.817 9.54434C111.186 10.1316 113.499 11.206 115.147 12.8536C116.794 14.5013 117.868 16.8147 118.456 21.1832C119.06 25.6802 119.07 31.6404 119.07 40.186V87.814C119.07 96.3596 119.06 102.32 118.456 106.817C117.868 111.186 116.794 113.498 115.147 115.146C113.499 116.794 111.186 117.868 106.817 118.456C102.32 119.06 96.3599 119.07 87.8144 119.07H81.8609C73.3154 119.07 67.3554 119.06 62.8582 118.456C58.4901 117.868 56.1766 116.794 54.5287 115.146C53.0797 113.697 52.0842 111.744 51.4644 108.37C50.8211 104.867 50.652 100.253 50.6158 93.7424C50.6021 91.2765 48.5919 89.2886 46.1259 89.3023C43.66 89.316 41.672 91.3265 41.6857 93.7925C41.7216 100.231 41.8757 105.598 42.6812 109.982C43.5101 114.495 45.0891 118.336 48.2143 121.461C51.7978 125.045 56.31 126.586 61.6687 127.306C66.8297 128 73.3928 128 81.5341 128H88.1412C96.2831 128 102.846 128 108.007 127.306C113.366 126.586 117.877 125.045 121.461 121.461C125.045 117.877 126.586 113.366 127.306 108.007C128.001 102.845 128 96.2828 128 88.1408V39.8594C128 31.7174 128.001 25.1548 127.306 19.9933C126.586 14.6345 125.045 10.1225 121.461 6.53902C117.877 2.95549 113.366 1.41419 108.007 0.693704C102.846 -0.000234737 96.2831 -0.000115951 88.1412 3.11899e-06H81.5341Z" fill="white"/>
<path d="M81.8597 59.5349C84.3256 59.5349 86.3248 61.534 86.3248 64C86.3248 66.4659 84.3256 68.4651 81.8597 68.4651H16.5353L28.2079 78.4705C30.0803 80.075 30.2971 82.894 28.6922 84.7663C27.0874 86.6387 24.2686 86.8554 22.3963 85.2504L1.55926 67.3899C0.569565 66.5421 0 65.3032 0 64C0 62.6968 0.569565 61.4578 1.55926 60.6101L22.3963 42.7494C24.2686 41.1445 27.0874 41.3613 28.6922 43.2337C30.2971 45.106 30.0803 47.9248 28.2079 49.5297L16.5353 59.5349H81.8597Z" fill="white"/>
</svg>
