<svg width="128" height="128" viewBox="0 0 128 128" fill="none" xmlns="http://www.w3.org/2000/svg">
<path d="M127.994 34.8793L126.419 34.077L107.076 20.1222L105.795 19.2583L94.3646 22.734C90.5384 10.4415 79.4731 1.24852 66.8376 0.130034C57.7789 -0.6805 49.1245 2.31878 42.4632 8.55039C35.8939 14.6962 32.1265 23.4336 32.1265 32.5221C32.1265 35.4545 32.5275 38.3706 33.3142 41.2253L26.1138 43.4078L4.88069 31.0434L2.92555 30.1747L0 32.1516V111.297L0.0078765 113.235L23.9001 127.136L25.1798 128L104.68 103.905L124.469 118.184L128 116.318V36.9404L127.994 34.8793ZM46.8523 13.4329C52.1563 8.47292 59.0568 6.09323 66.2763 6.7305C76.8017 7.66399 85.973 15.6346 88.5812 26.1176C88.7927 26.9668 88.8977 27.8147 89.0255 28.6625C89.1224 29.3071 89.2207 29.9518 89.2697 30.5947C89.3147 31.1905 89.3109 31.7839 89.3144 32.3779C89.319 32.9926 89.3382 33.608 89.2988 34.2195C89.2519 34.9283 89.1386 35.6328 89.0324 36.3377C88.9596 36.826 88.9203 37.3173 88.8191 37.8027C88.5674 39.0012 88.2429 40.1943 87.8186 41.3777L67.8034 76.8475L67.0148 78.2452C66.1096 79.8494 64.605 80.0241 63.9993 80.0241C63.3951 80.0241 61.8904 79.8494 60.985 78.2445L40.4462 41.8522L40.124 41.2035C39.1306 38.3717 38.6213 35.4536 38.6213 32.5223C38.6213 25.2861 41.6212 18.3282 46.8523 13.4329ZM121.505 107.929L108.516 98.5587V68.0368C108.516 66.2071 107.062 64.7236 105.268 64.7236C103.475 64.7236 102.021 66.2071 102.021 68.0368V97.8L26.1138 120.806L6.49478 109.391V39.6112L23.7908 49.6746V78.1396C23.7908 79.9693 25.2449 81.4527 27.0382 81.4527C28.8316 81.4527 30.2856 79.9693 30.2856 78.1396V49.0489L36.0288 47.302L55.1344 81.1578L55.3561 81.5513L55.3581 81.5542L60.9866 91.5279C61.6067 92.6215 62.7609 93.3026 64.0009 93.3026C64.0009 93.3026 65.7811 93.5619 67.0343 91.49C68.5091 89.0516 72.6393 81.5577 72.6393 81.5577C72.6408 81.5553 72.6427 81.5538 72.6441 81.5514L93.5839 44.4435L93.809 43.9581C93.8121 43.9495 93.8139 43.9403 93.8172 43.9316C94.1946 42.9065 94.5007 41.8655 94.7739 40.8187C94.8588 40.4952 94.9389 40.1704 95.0141 39.8444C95.2247 38.9234 95.4035 37.9975 95.5341 37.0656C95.5804 36.7365 95.6134 36.4062 95.6494 36.0762C95.7415 35.2303 95.8007 34.381 95.8268 33.5303C95.8369 33.1857 95.8457 32.8412 95.8449 32.4958C95.8448 31.4115 95.8041 30.3269 95.6966 29.2438C95.6961 29.2398 95.6964 29.2358 95.6959 29.2316L104.68 26.5073L121.505 38.6468V107.929H121.505Z" fill="white"/>
<path fill-rule="evenodd" clip-rule="evenodd" d="M38 32C38 35.4144 38.6725 38.7953 39.9791 41.9497C40.7495 43.8094 41.7313 45.569 42.9022 47.1948L62.8367 86.4081L87.0095 47.3353L85.0554 47.2535C86.245 45.6115 87.2412 43.8319 88.0209 41.9497C89.3275 38.7953 90 35.4144 90 32C90 28.5856 89.3275 25.2047 88.0209 22.0503C86.7142 18.8958 84.7991 16.0295 82.3848 13.6152C79.9705 11.2009 77.1042 9.28577 73.9498 7.97913C70.7953 6.67249 67.4144 6 64 6C60.5857 6 57.2047 6.67249 54.0503 7.97913C50.8958 9.28577 48.0295 11.2009 45.6152 13.6152C43.2009 16.0295 41.2858 18.8958 39.9791 22.0503C38.6725 25.2047 38 28.5856 38 32ZM64 44C71.7319 44 78 37.7319 78 30C78 22.2681 71.7319 16 64 16C56.2681 16 50 22.2681 50 30C50 37.7319 56.2681 44 64 44Z" fill="white"/>
<rect x="46.769" y="36.0817" width="48" height="7" transform="rotate(-15.3741 46.769 36.0817)" fill="white"/>
</svg>
