<svg width="128" height="128" viewBox="0 0 128 128" fill="none" xmlns="http://www.w3.org/2000/svg">
<path d="M128 28.4444H0V7.11111C0 5.22513 0.749204 3.41639 2.0828 2.0828C3.41639 0.749204 5.22513 0 7.11111 0H120.889C122.775 0 124.584 0.749204 125.917 2.0828C127.251 3.41639 128 5.22513 128 7.11111V28.4444ZM0 120.889V42.6667H128V120.889C128 122.775 127.251 124.584 125.917 125.917C124.584 127.251 122.775 128 120.889 128H7.11111C5.22513 128 3.41639 127.251 2.0828 125.917C0.749204 124.584 0 122.775 0 120.889ZM21.3333 78.2222H106.667V64H21.3333V78.2222ZM21.3333 106.667H64V92.4444H21.3333V106.667Z" fill="white"/>
</svg>
