<svg width="128" height="128" viewBox="0 0 128 128" fill="none" xmlns="http://www.w3.org/2000/svg">
<g clip-path="url(#clip0_126_13)">
<path fill-rule="evenodd" clip-rule="evenodd" d="M104.616 0H23.252L1.75759e-05 40H127.868L104.616 0ZM116 96H12.012L12 72H19.856C24.152 72 30.964 68.168 33.848 62.304C37.084 68.004 43.124 72 48.892 72C54.984 72 61.692 68.376 63.932 63.136C66.176 68.252 72.7441 72 78.7121 72C84.6321 72 90.7641 67.6481 93.8681 61.7041C97.4961 67.7041 102.66 72 108 72C109.172 72 114.976 72.192 116 72V96ZM0.0999932 48H1.75759e-05C-0.0719824 49.74 1.75759e-05 53.724 1.75759e-05 56C1.75759e-05 60.26 1.53205 64.916 4.00405 68L4.12404 112C4.12404 120.836 11.512 128 20.624 128H107.244C116.356 128 124 120.836 124 112V68C126.8 64.704 128 61.32 128 56V48H0.0999932Z" fill="white"/>
<rect y="40" width="128" height="13" fill="white"/>
</g>
<defs>
<clipPath id="clip0_126_13">
<rect width="128" height="128" fill="white"/>
</clipPath>
</defs>
</svg>
