<svg width="103" height="128" viewBox="0 0 103 128" fill="none" xmlns="http://www.w3.org/2000/svg">
<path fill-rule="evenodd" clip-rule="evenodd" d="M21.1862 91.0739H21.412H102.4V38.2511C102.4 27.7928 102.388 20.4987 101.672 14.9953C100.975 9.64909 99.7004 6.81798 97.7459 4.80147C95.7913 2.78502 93.0476 1.47034 87.8656 0.751552C82.5312 0.0115838 75.4611 0 65.3241 0H37.0758C30.6648 0 25.4805 0.00467158 21.1862 0.1952V91.0739ZM47 67L37 32L44.6922 29.8022L51.7051 54.3474L57.6927 30L61.6658 30.9771L65.7056 29.8498L72.1651 52.9985L78.1102 30L85.8556 32.0022L76.7454 67.2443L71.7525 65.9536L67.7835 67.0611L61.9543 46.1709L56.7685 67.2578L51.0337 65.8475L47 67Z" fill="white"/>
<path d="M10.5931 1.53333C7.824 2.29525 6.04032 3.37249 4.65395 4.80283C2.69946 6.81928 1.42515 9.65038 0.728448 14.9966C0.0112645 20.5 0 27.7941 0 38.2524V96C2.48749 94.2067 5.29113 92.8416 8.31353 92.0064C9.04294 91.8048 9.79859 91.6467 10.5931 91.5226V1.53333Z" fill="white"/>
<path d="M25.6 102.4H21.9263C14.9911 102.4 12.5665 102.437 10.7085 102.836C7.42284 103.542 4.56645 105.057 2.48389 107.102C1.78156 107.792 1.43045 108.137 0.620535 110.334C-0.189385 112.532 -0.0611298 113.464 0.195382 115.328C0.240694 115.657 0.289399 115.978 0.341943 116.292C1.04133 120.466 2.32057 122.676 4.28261 124.251C6.24466 125.825 8.99941 126.852 14.2013 127.413C19.5562 127.991 26.6534 128 36.8295 128H65.1865C75.3625 128 82.4601 127.991 87.815 127.413C93.0169 126.852 95.7715 125.825 97.7337 124.251C99.6953 122.676 100.975 120.466 101.674 116.292C102.262 112.786 102.378 108.349 102.4 102.4H51.2V115.381C51.2 117.155 51.2 118.042 50.5926 118.4C49.9859 118.758 49.1558 118.362 47.495 117.569L39.5449 113.771C38.983 113.502 38.7021 113.368 38.4 113.368C38.0978 113.368 37.8169 113.502 37.2551 113.77L29.3048 117.569C27.6443 118.362 26.8141 118.758 26.207 118.4C25.6 118.042 25.6 117.155 25.6 115.381V102.4Z" fill="white"/>
</svg>
